<?xml version="1.0" encoding="UTF-8" standalone="no"?>
<!-- Created with Inkscape (http://www.inkscape.org/) -->

<svg
   version="1.1"
   id="svg2"
   xml:space="preserve"
   width="4081.8933"
   height="4081.8933"
   viewBox="0 0 4081.8933 4081.8933"
   sodipodi:docname="Лого без consulting.ai"
   xmlns:inkscape="http://www.inkscape.org/namespaces/inkscape"
   xmlns:sodipodi="http://sodipodi.sourceforge.net/DTD/sodipodi-0.dtd"
   xmlns="http://www.w3.org/2000/svg"
   xmlns:svg="http://www.w3.org/2000/svg"><defs
     id="defs6"><clipPath
       clipPathUnits="userSpaceOnUse"
       id="clipPath16"><path
         d="M 0,3061.42 H 3061.42 V 0 H 0 Z"
         id="path14" /></clipPath></defs><sodipodi:namedview
     id="namedview4"
     pagecolor="#ffffff"
     bordercolor="#666666"
     borderopacity="1.0"
     inkscape:pageshadow="2"
     inkscape:pageopacity="0.0"
     inkscape:pagecheckerboard="0" /><g
     id="g8"
     inkscape:groupmode="layer"
     inkscape:label="Лого без consulting"
     transform="matrix(1.3333333,0,0,-1.3333333,0,4081.8933)"><g
       id="g10"><g
         id="g12"
         clip-path="url(#clipPath16)"><g
           id="g18"
           transform="translate(2944.7822,692.3177)"><path
             d="m 0,0 c -19.776,0 -35.894,16.101 -35.894,35.959 0,19.795 16.068,35.864 35.894,35.864 19.812,0 35.929,-16.069 35.929,-35.864 C 35.929,16.101 19.762,0 0,0 M 0,68 C -17.672,68 -32.104,53.646 -32.104,35.959 -32.039,18.335 -17.672,3.871 0,3.871 17.657,3.871 32.008,18.335 32.008,35.959 32.008,53.646 17.657,68 0,68"
             style="fill:#1d1d1b;fill-opacity:1;fill-rule:evenodd;stroke:none"
             id="path20" /></g><g
           id="g22"
           transform="translate(2929.9932,747.4222)"><path
             d="m 0,0 h 17.202 c 9.007,0 14.272,-4.843 14.272,-12.277 0,-6.285 -3.774,-10.14 -9.184,-11.662 L 32.705,-38.518 H 24.72 l -9.574,13.444 H 6.739 V -38.518 H 0 Z m 16.685,-19.081 c 4.86,0 7.92,2.56 7.92,6.512 0,4.179 -2.98,6.382 -7.968,6.382 H 6.739 v -12.894 z"
             style="fill:#1d1d1b;fill-opacity:1;fill-rule:evenodd;stroke:none"
             id="path24" /></g><g
           id="g26"
           transform="translate(2724.6172,523.2405)"><path
             d="M 0,0 V -131.399 H -69.165 V -1.085 l -146.399,242.146 h 73.992 L -32.477,59.577 77.703,241.061 h 68.081 z"
             style="fill:#1d1d1b;fill-opacity:1;fill-rule:evenodd;stroke:none"
             id="path28" /></g><g
           id="g30"
           transform="translate(473.998,764.3011)"><path
             d="m 0,0 -162.323,-372.46 h -68.112 L -393.292,0 h 75.079 L -194.216,-287.371 -69.182,0 Z"
             style="fill:#1d1d1b;fill-opacity:1;fill-rule:evenodd;stroke:none"
             id="path32" /></g><path
           d="m 542.5,764.301 h 69.214 V 391.841 H 542.5 Z"
           style="fill:#1d1d1b;fill-opacity:1;fill-rule:evenodd;stroke:none"
           id="path34" /><g
           id="g36"
           transform="translate(1041.564,578.055)"><path
             d="M 0,0 C 0,110.164 85.139,191.593 200.632,191.593 316.108,191.593 401.277,110.748 401.277,0 401.311,-110.666 316.108,-191.559 200.632,-191.559 85.139,-191.559 0,-110.18 0,0 m 331.561,0 c 0,76.035 -55.883,130.945 -130.929,130.945 C 125.584,130.945 69.733,76.035 69.733,0 c 0,-76.099 55.851,-130.863 130.899,-130.863 75.046,0 130.929,54.764 130.929,130.863"
             style="fill:#1d1d1b;fill-opacity:1;fill-rule:evenodd;stroke:none"
             id="path38" /></g><g
           id="g40"
           transform="translate(1582.1611,705.7943)"><path
             d="m 0,0 h -123.478 v 58.507 h 316.09 L 167.377,0 H 69.135 V -313.953 H 0 Z"
             style="fill:#1d1d1b;fill-opacity:1;fill-rule:evenodd;stroke:none"
             id="path42" /></g><g
           id="g44"
           transform="translate(1796.2041,431.2035)"><path
             d="m 0,0 23.925,53.745 c 29.788,-23.94 77.152,-41.014 122.912,-41.014 58.02,0 82.529,20.766 82.529,48.464 0,80.344 -221.396,27.7 -221.396,165.967 0,60.226 47.866,111.282 150.026,111.282 44.724,0 91.568,-11.727 123.997,-32.997 l -22.968,-53.112 c -33.465,19.632 -69.052,28.637 -101.546,28.637 -57.456,0 -80.894,-22.369 -80.894,-50.505 0,-79.37 220.862,-27.732 220.862,-164.476 0,-59.608 -48.448,-110.698 -150.61,-110.698 C 88.831,-44.707 30.824,-26.647 0,0"
             style="fill:#1d1d1b;fill-opacity:1;fill-rule:evenodd;stroke:none"
             id="path46" /></g><g
           id="g48"
           transform="translate(2280.8047,547.6995)"><path
             d="m 0,0 -59.091,-60.613 v -95.245 h -69.134 v 372.46 h 69.134 V 25.594 l 184.14,191.008 h 77.703 L 46.326,50.053 212.341,-155.858 h -80.862 z"
             style="fill:#1d1d1b;fill-opacity:1;fill-rule:evenodd;stroke:none"
             id="path50" /></g><g
           id="g52"
           transform="translate(691.9434,431.2035)"><path
             d="m 0,0 23.909,53.745 c 29.804,-23.94 77.152,-41.014 122.96,-41.014 58.006,0 82.465,20.766 82.465,48.464 0,80.344 -221.397,27.7 -221.397,165.967 0,60.226 47.898,111.282 150.06,111.282 44.723,0 91.552,-11.727 124.045,-32.997 l -23,-53.112 c -33.498,19.632 -69.085,28.637 -101.579,28.637 -57.439,0 -80.861,-22.369 -80.861,-50.505 0,-79.37 220.878,-27.732 220.878,-164.476 C 297.48,6.383 249.031,-44.707 146.869,-44.707 88.863,-44.707 30.825,-26.647 0,0"
             style="fill:#1d1d1b;fill-opacity:1;fill-rule:evenodd;stroke:none"
             id="path54" /></g></g></g><g
       id="g56"
       transform="translate(1148.2778,2793.2253)"><path
         d="M 0,0 -767.937,166.055 20.781,-1177.578 294.757,-609.25 Z"
         style="fill:#ffd400;fill-opacity:1;fill-rule:evenodd;stroke:none"
         id="path58" /></g><g
       id="g60"
       transform="translate(2570.8008,2959.28)"><path
         d="m 0,0 -767.551,-163.917 -326.909,-676.636 h -0.034 l -273.976,-568.329 273.976,-469.519 z"
         style="fill:#ffd400;fill-opacity:1;fill-rule:evenodd;stroke:none"
         id="path62" /></g></g></svg>
